<mxfile host="Electron" agent="Mozilla/5.0 (Windows NT 10.0; Win64; x64) AppleWebKit/537.36 (KHTML, like Gecko) draw.io/28.1.2 Chrome/138.0.7204.243 Electron/37.4.0 Safari/537.36" version="28.1.2">
  <diagram name="Страница — 1" id="FeVMbrDBXYHkl0j5YcD-">
    <mxGraphModel dx="2130" dy="1952" grid="1" gridSize="10" guides="1" tooltips="1" connect="1" arrows="1" fold="1" page="1" pageScale="1" pageWidth="827" pageHeight="1169" math="0" shadow="0">
      <root>
        <mxCell id="0" />
        <mxCell id="1" parent="0" />
        <mxCell id="Vgc5GMOzNuQ4jgEGxhGo-27" value="" style="rounded=0;whiteSpace=wrap;html=1;fillColor=#fff2cc;strokeColor=#d6b656;movable=0;resizable=0;rotatable=0;deletable=0;editable=0;locked=1;connectable=0;" parent="1" vertex="1">
          <mxGeometry x="-330" y="-200" width="1810" height="3540" as="geometry" />
        </mxCell>
        <mxCell id="Vgc5GMOzNuQ4jgEGxhGo-1" value="Автоматизированная складская деятельность торговой организации" style="rounded=0;whiteSpace=wrap;html=1;" parent="1" vertex="1">
          <mxGeometry x="284" y="210" width="316" height="200" as="geometry" />
        </mxCell>
        <mxCell id="Vgc5GMOzNuQ4jgEGxhGo-6" value="" style="endArrow=classic;html=1;rounded=0;" parent="1" edge="1">
          <mxGeometry width="50" height="50" relative="1" as="geometry">
            <mxPoint x="70" y="240" as="sourcePoint" />
            <mxPoint x="284" y="240" as="targetPoint" />
          </mxGeometry>
        </mxCell>
        <mxCell id="Vgc5GMOzNuQ4jgEGxhGo-7" value="&amp;nbsp;Приходный ордер" style="text;html=1;align=center;verticalAlign=middle;whiteSpace=wrap;rounded=0;" parent="1" vertex="1">
          <mxGeometry x="130" y="210" width="100" height="30" as="geometry" />
        </mxCell>
        <mxCell id="Vgc5GMOzNuQ4jgEGxhGo-8" value="" style="endArrow=classic;html=1;rounded=0;" parent="1" edge="1">
          <mxGeometry width="50" height="50" relative="1" as="geometry">
            <mxPoint x="70" y="280" as="sourcePoint" />
            <mxPoint x="284" y="280" as="targetPoint" />
          </mxGeometry>
        </mxCell>
        <mxCell id="Vgc5GMOzNuQ4jgEGxhGo-9" value="" style="endArrow=classic;html=1;rounded=0;" parent="1" edge="1">
          <mxGeometry width="50" height="50" relative="1" as="geometry">
            <mxPoint x="70" y="320" as="sourcePoint" />
            <mxPoint x="284" y="320" as="targetPoint" />
          </mxGeometry>
        </mxCell>
        <mxCell id="Vgc5GMOzNuQ4jgEGxhGo-10" value="" style="endArrow=classic;html=1;rounded=0;" parent="1" edge="1">
          <mxGeometry width="50" height="50" relative="1" as="geometry">
            <mxPoint x="70" y="360" as="sourcePoint" />
            <mxPoint x="284" y="360" as="targetPoint" />
          </mxGeometry>
        </mxCell>
        <mxCell id="Vgc5GMOzNuQ4jgEGxhGo-11" value="" style="endArrow=classic;html=1;rounded=0;" parent="1" edge="1">
          <mxGeometry width="50" height="50" relative="1" as="geometry">
            <mxPoint x="70" y="400" as="sourcePoint" />
            <mxPoint x="284" y="400" as="targetPoint" />
          </mxGeometry>
        </mxCell>
        <mxCell id="Vgc5GMOzNuQ4jgEGxhGo-12" value="Лимитная карта" style="text;html=1;align=center;verticalAlign=middle;whiteSpace=wrap;rounded=0;" parent="1" vertex="1">
          <mxGeometry x="120" y="250" width="120" height="30" as="geometry" />
        </mxCell>
        <mxCell id="Vgc5GMOzNuQ4jgEGxhGo-13" value="Требование" style="text;html=1;align=center;verticalAlign=middle;whiteSpace=wrap;rounded=0;" parent="1" vertex="1">
          <mxGeometry x="145" y="290" width="60" height="30" as="geometry" />
        </mxCell>
        <mxCell id="Vgc5GMOzNuQ4jgEGxhGo-15" value="Продукция" style="text;html=1;align=center;verticalAlign=middle;whiteSpace=wrap;rounded=0;" parent="1" vertex="1">
          <mxGeometry x="145" y="370" width="60" height="30" as="geometry" />
        </mxCell>
        <mxCell id="Vgc5GMOzNuQ4jgEGxhGo-16" value="" style="endArrow=classic;html=1;rounded=0;" parent="1" edge="1">
          <mxGeometry width="50" height="50" relative="1" as="geometry">
            <mxPoint x="512.5" y="580" as="sourcePoint" />
            <mxPoint x="512.5" y="410" as="targetPoint" />
          </mxGeometry>
        </mxCell>
        <mxCell id="Vgc5GMOzNuQ4jgEGxhGo-17" value="Информационная система склада предприятия" style="text;html=1;align=left;verticalAlign=middle;whiteSpace=wrap;rounded=0;" parent="1" vertex="1">
          <mxGeometry x="517.5" y="460" width="90" height="30" as="geometry" />
        </mxCell>
        <mxCell id="Vgc5GMOzNuQ4jgEGxhGo-19" value="" style="endArrow=classic;html=1;rounded=0;" parent="1" edge="1">
          <mxGeometry width="50" height="50" relative="1" as="geometry">
            <mxPoint x="440" y="60" as="sourcePoint" />
            <mxPoint x="440" y="210" as="targetPoint" />
          </mxGeometry>
        </mxCell>
        <mxCell id="Vgc5GMOzNuQ4jgEGxhGo-20" value="Обновленные инструкции" style="text;html=1;align=left;verticalAlign=middle;whiteSpace=wrap;rounded=0;" parent="1" vertex="1">
          <mxGeometry x="443" y="140" width="60" height="30" as="geometry" />
        </mxCell>
        <mxCell id="Vgc5GMOzNuQ4jgEGxhGo-21" value="" style="endArrow=classic;html=1;rounded=0;" parent="1" edge="1">
          <mxGeometry width="50" height="50" relative="1" as="geometry">
            <mxPoint x="600" y="249.96" as="sourcePoint" />
            <mxPoint x="776" y="249.96" as="targetPoint" />
          </mxGeometry>
        </mxCell>
        <mxCell id="Vgc5GMOzNuQ4jgEGxhGo-22" value="" style="endArrow=classic;html=1;rounded=0;" parent="1" edge="1">
          <mxGeometry width="50" height="50" relative="1" as="geometry">
            <mxPoint x="600" y="288.78000000000003" as="sourcePoint" />
            <mxPoint x="776" y="289.12" as="targetPoint" />
          </mxGeometry>
        </mxCell>
        <mxCell id="Vgc5GMOzNuQ4jgEGxhGo-23" value="" style="endArrow=classic;html=1;rounded=0;" parent="1" edge="1">
          <mxGeometry width="50" height="50" relative="1" as="geometry">
            <mxPoint x="600" y="329.96" as="sourcePoint" />
            <mxPoint x="776" y="330.3" as="targetPoint" />
          </mxGeometry>
        </mxCell>
        <mxCell id="Vgc5GMOzNuQ4jgEGxhGo-24" value="Ведомость прихода на склад" style="text;html=1;align=center;verticalAlign=middle;whiteSpace=wrap;rounded=0;" parent="1" vertex="1">
          <mxGeometry x="606" y="219.96" width="130" height="30" as="geometry" />
        </mxCell>
        <mxCell id="Vgc5GMOzNuQ4jgEGxhGo-25" value="Ведомость расхода по складу" style="text;html=1;align=center;verticalAlign=middle;whiteSpace=wrap;rounded=0;" parent="1" vertex="1">
          <mxGeometry x="606" y="259.12" width="140" height="30" as="geometry" />
        </mxCell>
        <mxCell id="Vgc5GMOzNuQ4jgEGxhGo-26" value="Оборотная ведомость по складу" style="text;html=1;align=center;verticalAlign=middle;whiteSpace=wrap;rounded=0;" parent="1" vertex="1">
          <mxGeometry x="606" y="294.12" width="130" height="30" as="geometry" />
        </mxCell>
        <mxCell id="Vgc5GMOzNuQ4jgEGxhGo-55" style="edgeStyle=orthogonalEdgeStyle;rounded=0;orthogonalLoop=1;jettySize=auto;html=1;exitX=1;exitY=0.25;exitDx=0;exitDy=0;entryX=0;entryY=0.25;entryDx=0;entryDy=0;" parent="1" source="Vgc5GMOzNuQ4jgEGxhGo-29" target="Vgc5GMOzNuQ4jgEGxhGo-30" edge="1">
          <mxGeometry relative="1" as="geometry" />
        </mxCell>
        <mxCell id="Vgc5GMOzNuQ4jgEGxhGo-29" value="Автоматизированная приемка товаров на склад" style="rounded=0;whiteSpace=wrap;html=1;" parent="1" vertex="1">
          <mxGeometry x="140" y="850" width="120" height="80" as="geometry" />
        </mxCell>
        <mxCell id="Vgc5GMOzNuQ4jgEGxhGo-61" style="edgeStyle=orthogonalEdgeStyle;rounded=0;orthogonalLoop=1;jettySize=auto;html=1;exitX=1;exitY=0.5;exitDx=0;exitDy=0;entryX=0;entryY=0.5;entryDx=0;entryDy=0;" parent="1" source="Vgc5GMOzNuQ4jgEGxhGo-30" target="Vgc5GMOzNuQ4jgEGxhGo-31" edge="1">
          <mxGeometry relative="1" as="geometry" />
        </mxCell>
        <mxCell id="Vgc5GMOzNuQ4jgEGxhGo-30" value="Автоматизированное хранение и переучет продукции" style="rounded=0;whiteSpace=wrap;html=1;" parent="1" vertex="1">
          <mxGeometry x="370" y="960" width="120" height="60" as="geometry" />
        </mxCell>
        <mxCell id="Vgc5GMOzNuQ4jgEGxhGo-31" value="Автоматизированная отгрузка" style="rounded=0;whiteSpace=wrap;html=1;" parent="1" vertex="1">
          <mxGeometry x="650" y="1050" width="120" height="80" as="geometry" />
        </mxCell>
        <mxCell id="Vgc5GMOzNuQ4jgEGxhGo-33" value="" style="endArrow=classic;html=1;rounded=0;" parent="1" edge="1">
          <mxGeometry width="50" height="50" relative="1" as="geometry">
            <mxPoint x="299.64" y="580" as="sourcePoint" />
            <mxPoint x="299.64" y="410" as="targetPoint" />
          </mxGeometry>
        </mxCell>
        <mxCell id="Vgc5GMOzNuQ4jgEGxhGo-34" value="Роботы-экспедиторы" style="text;html=1;align=left;verticalAlign=middle;whiteSpace=wrap;rounded=0;" parent="1" vertex="1">
          <mxGeometry x="300" y="453" width="60" height="30" as="geometry" />
        </mxCell>
        <mxCell id="Vgc5GMOzNuQ4jgEGxhGo-35" value="" style="endArrow=classic;html=1;rounded=0;" parent="1" edge="1">
          <mxGeometry width="50" height="50" relative="1" as="geometry">
            <mxPoint x="199.47" y="700" as="sourcePoint" />
            <mxPoint x="199.47" y="850" as="targetPoint" />
          </mxGeometry>
        </mxCell>
        <mxCell id="Vgc5GMOzNuQ4jgEGxhGo-37" value="" style="endArrow=classic;html=1;rounded=0;" parent="1" edge="1">
          <mxGeometry width="50" height="50" relative="1" as="geometry">
            <mxPoint x="-20" y="870" as="sourcePoint" />
            <mxPoint x="140" y="870" as="targetPoint" />
          </mxGeometry>
        </mxCell>
        <mxCell id="Vgc5GMOzNuQ4jgEGxhGo-38" value="" style="endArrow=classic;html=1;rounded=0;" parent="1" edge="1">
          <mxGeometry width="50" height="50" relative="1" as="geometry">
            <mxPoint x="-20" y="900" as="sourcePoint" />
            <mxPoint x="140" y="900" as="targetPoint" />
          </mxGeometry>
        </mxCell>
        <mxCell id="Vgc5GMOzNuQ4jgEGxhGo-40" value="" style="endArrow=classic;html=1;rounded=0;" parent="1" edge="1">
          <mxGeometry width="50" height="50" relative="1" as="geometry">
            <mxPoint x="-20" y="1010" as="sourcePoint" />
            <mxPoint x="370" y="1010" as="targetPoint" />
          </mxGeometry>
        </mxCell>
        <mxCell id="Vgc5GMOzNuQ4jgEGxhGo-41" value="" style="endArrow=classic;html=1;rounded=0;" parent="1" edge="1">
          <mxGeometry width="50" height="50" relative="1" as="geometry">
            <mxPoint x="200" y="1210" as="sourcePoint" />
            <mxPoint x="200" y="930" as="targetPoint" />
          </mxGeometry>
        </mxCell>
        <mxCell id="Vgc5GMOzNuQ4jgEGxhGo-42" value="" style="endArrow=classic;html=1;rounded=0;" parent="1" edge="1">
          <mxGeometry width="50" height="50" relative="1" as="geometry">
            <mxPoint x="429" y="1210" as="sourcePoint" />
            <mxPoint x="429.47" y="1020" as="targetPoint" />
          </mxGeometry>
        </mxCell>
        <mxCell id="Vgc5GMOzNuQ4jgEGxhGo-44" value="" style="endArrow=classic;html=1;rounded=0;" parent="1" edge="1">
          <mxGeometry width="50" height="50" relative="1" as="geometry">
            <mxPoint x="710" y="1210" as="sourcePoint" />
            <mxPoint x="709.99" y="1130" as="targetPoint" />
          </mxGeometry>
        </mxCell>
        <mxCell id="Vgc5GMOzNuQ4jgEGxhGo-45" value="" style="endArrow=none;html=1;rounded=0;" parent="1" edge="1">
          <mxGeometry width="50" height="50" relative="1" as="geometry">
            <mxPoint x="200" y="1210" as="sourcePoint" />
            <mxPoint x="710" y="1210" as="targetPoint" />
          </mxGeometry>
        </mxCell>
        <mxCell id="Vgc5GMOzNuQ4jgEGxhGo-46" value="" style="endArrow=none;html=1;rounded=0;" parent="1" edge="1">
          <mxGeometry width="50" height="50" relative="1" as="geometry">
            <mxPoint x="560" y="1430" as="sourcePoint" />
            <mxPoint x="560" y="1210" as="targetPoint" />
          </mxGeometry>
        </mxCell>
        <mxCell id="Vgc5GMOzNuQ4jgEGxhGo-47" value="Информационная система склада предприятия" style="text;html=1;align=center;verticalAlign=middle;whiteSpace=wrap;rounded=0;" parent="1" vertex="1">
          <mxGeometry x="565" y="1220" width="110" height="30" as="geometry" />
        </mxCell>
        <mxCell id="Vgc5GMOzNuQ4jgEGxhGo-48" value="" style="endArrow=classic;html=1;rounded=0;" parent="1" edge="1">
          <mxGeometry width="50" height="50" relative="1" as="geometry">
            <mxPoint x="770" y="1120" as="sourcePoint" />
            <mxPoint x="950" y="1120" as="targetPoint" />
          </mxGeometry>
        </mxCell>
        <mxCell id="Vgc5GMOzNuQ4jgEGxhGo-49" value="" style="endArrow=classic;html=1;rounded=0;" parent="1" edge="1">
          <mxGeometry width="50" height="50" relative="1" as="geometry">
            <mxPoint x="770" y="1089.57" as="sourcePoint" />
            <mxPoint x="950" y="1090" as="targetPoint" />
          </mxGeometry>
        </mxCell>
        <mxCell id="Vgc5GMOzNuQ4jgEGxhGo-50" value="" style="endArrow=classic;html=1;rounded=0;" parent="1" edge="1">
          <mxGeometry width="50" height="50" relative="1" as="geometry">
            <mxPoint x="770" y="1060" as="sourcePoint" />
            <mxPoint x="950" y="1060" as="targetPoint" />
          </mxGeometry>
        </mxCell>
        <mxCell id="Vgc5GMOzNuQ4jgEGxhGo-51" value="" style="endArrow=classic;html=1;rounded=0;" parent="1" edge="1">
          <mxGeometry width="50" height="50" relative="1" as="geometry">
            <mxPoint x="429.09" y="810" as="sourcePoint" />
            <mxPoint x="429.09" y="960" as="targetPoint" />
          </mxGeometry>
        </mxCell>
        <mxCell id="Vgc5GMOzNuQ4jgEGxhGo-52" value="" style="endArrow=classic;html=1;rounded=0;" parent="1" edge="1">
          <mxGeometry width="50" height="50" relative="1" as="geometry">
            <mxPoint x="710" y="810" as="sourcePoint" />
            <mxPoint x="709.09" y="1050" as="targetPoint" />
          </mxGeometry>
        </mxCell>
        <mxCell id="Vgc5GMOzNuQ4jgEGxhGo-53" value="" style="endArrow=none;html=1;rounded=0;" parent="1" edge="1">
          <mxGeometry width="50" height="50" relative="1" as="geometry">
            <mxPoint x="200" y="810" as="sourcePoint" />
            <mxPoint x="710" y="810" as="targetPoint" />
          </mxGeometry>
        </mxCell>
        <mxCell id="Vgc5GMOzNuQ4jgEGxhGo-59" value="" style="endArrow=none;html=1;rounded=0;" parent="1" edge="1">
          <mxGeometry width="50" height="50" relative="1" as="geometry">
            <mxPoint x="290" y="890" as="sourcePoint" />
            <mxPoint x="290" y="990" as="targetPoint" />
          </mxGeometry>
        </mxCell>
        <mxCell id="Vgc5GMOzNuQ4jgEGxhGo-60" value="" style="endArrow=classic;html=1;rounded=0;entryX=0;entryY=0.5;entryDx=0;entryDy=0;" parent="1" target="Vgc5GMOzNuQ4jgEGxhGo-30" edge="1">
          <mxGeometry width="50" height="50" relative="1" as="geometry">
            <mxPoint x="290" y="990" as="sourcePoint" />
            <mxPoint x="360" y="900" as="targetPoint" />
          </mxGeometry>
        </mxCell>
        <mxCell id="Vgc5GMOzNuQ4jgEGxhGo-62" value="" style="endArrow=classic;html=1;rounded=0;" parent="1" edge="1">
          <mxGeometry width="50" height="50" relative="1" as="geometry">
            <mxPoint x="260" y="900" as="sourcePoint" />
            <mxPoint x="950" y="900" as="targetPoint" />
          </mxGeometry>
        </mxCell>
        <mxCell id="Vgc5GMOzNuQ4jgEGxhGo-64" value="Товарно - транспортная накладная" style="text;html=1;align=center;verticalAlign=middle;whiteSpace=wrap;rounded=0;" parent="1" vertex="1">
          <mxGeometry x="-20" y="830" width="160" height="30" as="geometry" />
        </mxCell>
        <mxCell id="Vgc5GMOzNuQ4jgEGxhGo-65" value="Продукция" style="text;html=1;align=center;verticalAlign=middle;whiteSpace=wrap;rounded=0;" parent="1" vertex="1">
          <mxGeometry x="30" y="870" width="60" height="30" as="geometry" />
        </mxCell>
        <mxCell id="Vgc5GMOzNuQ4jgEGxhGo-67" value="Требование" style="text;html=1;align=center;verticalAlign=middle;whiteSpace=wrap;rounded=0;" parent="1" vertex="1">
          <mxGeometry x="30" y="1090" width="60" height="30" as="geometry" />
        </mxCell>
        <mxCell id="Vgc5GMOzNuQ4jgEGxhGo-69" value="Полученные товары" style="text;html=1;align=center;verticalAlign=middle;whiteSpace=wrap;rounded=0;" parent="1" vertex="1">
          <mxGeometry x="260" y="840" width="116" height="30" as="geometry" />
        </mxCell>
        <mxCell id="Vgc5GMOzNuQ4jgEGxhGo-70" value="Приходные документы" style="text;html=1;align=center;verticalAlign=middle;whiteSpace=wrap;rounded=0;" parent="1" vertex="1">
          <mxGeometry x="224" y="950" width="60" height="30" as="geometry" />
        </mxCell>
        <mxCell id="Vgc5GMOzNuQ4jgEGxhGo-71" value="Укомплектованные товары" style="text;html=1;align=center;verticalAlign=middle;whiteSpace=wrap;rounded=0;" parent="1" vertex="1">
          <mxGeometry x="520" y="960" width="60" height="30" as="geometry" />
        </mxCell>
        <mxCell id="Vgc5GMOzNuQ4jgEGxhGo-72" value="Ведомость прихода на склад" style="text;html=1;align=center;verticalAlign=middle;whiteSpace=wrap;rounded=0;" parent="1" vertex="1">
          <mxGeometry x="760" y="865" width="140" height="30" as="geometry" />
        </mxCell>
        <mxCell id="Vgc5GMOzNuQ4jgEGxhGo-74" value="Оборотная ведомость по складу" style="text;html=1;align=center;verticalAlign=middle;whiteSpace=wrap;rounded=0;" parent="1" vertex="1">
          <mxGeometry x="770" y="1030" width="130" height="30" as="geometry" />
        </mxCell>
        <mxCell id="Vgc5GMOzNuQ4jgEGxhGo-75" value="Ведомость расхода по складу" style="text;html=1;align=center;verticalAlign=middle;whiteSpace=wrap;rounded=0;" parent="1" vertex="1">
          <mxGeometry x="770" y="1060" width="120" height="30" as="geometry" />
        </mxCell>
        <mxCell id="Vgc5GMOzNuQ4jgEGxhGo-76" value="Отгружаемая продукция" style="text;html=1;align=center;verticalAlign=middle;whiteSpace=wrap;rounded=0;" parent="1" vertex="1">
          <mxGeometry x="805" y="1090" width="60" height="30" as="geometry" />
        </mxCell>
        <mxCell id="Vgc5GMOzNuQ4jgEGxhGo-79" value="А1" style="text;html=1;align=center;verticalAlign=middle;whiteSpace=wrap;rounded=0;" parent="1" vertex="1">
          <mxGeometry x="222" y="908" width="60" height="30" as="geometry" />
        </mxCell>
        <mxCell id="Vgc5GMOzNuQ4jgEGxhGo-82" value="А2" style="text;html=1;align=center;verticalAlign=middle;whiteSpace=wrap;rounded=0;" parent="1" vertex="1">
          <mxGeometry x="451" y="998" width="60" height="30" as="geometry" />
        </mxCell>
        <mxCell id="Vgc5GMOzNuQ4jgEGxhGo-83" value="А3" style="text;html=1;align=center;verticalAlign=middle;whiteSpace=wrap;rounded=0;" parent="1" vertex="1">
          <mxGeometry x="731" y="1108" width="60" height="30" as="geometry" />
        </mxCell>
        <mxCell id="Vgc5GMOzNuQ4jgEGxhGo-84" value="А0" style="text;html=1;align=center;verticalAlign=middle;whiteSpace=wrap;rounded=0;" parent="1" vertex="1">
          <mxGeometry x="560.5" y="387" width="60" height="30" as="geometry" />
        </mxCell>
        <mxCell id="Vgc5GMOzNuQ4jgEGxhGo-86" value="" style="endArrow=none;html=1;rounded=0;" parent="1" edge="1">
          <mxGeometry width="50" height="50" relative="1" as="geometry">
            <mxPoint x="400" y="1280" as="sourcePoint" />
            <mxPoint x="740" y="1280" as="targetPoint" />
          </mxGeometry>
        </mxCell>
        <mxCell id="Vgc5GMOzNuQ4jgEGxhGo-87" value="" style="endArrow=classic;html=1;rounded=0;" parent="1" edge="1">
          <mxGeometry width="50" height="50" relative="1" as="geometry">
            <mxPoint x="740" y="1280" as="sourcePoint" />
            <mxPoint x="740" y="1130" as="targetPoint" />
          </mxGeometry>
        </mxCell>
        <mxCell id="Vgc5GMOzNuQ4jgEGxhGo-88" value="" style="endArrow=none;html=1;rounded=0;" parent="1" edge="1">
          <mxGeometry width="50" height="50" relative="1" as="geometry">
            <mxPoint x="400" y="1429" as="sourcePoint" />
            <mxPoint x="400" y="1279" as="targetPoint" />
          </mxGeometry>
        </mxCell>
        <mxCell id="Vgc5GMOzNuQ4jgEGxhGo-89" value="&lt;span style=&quot;text-align: left;&quot;&gt;Роботы-экспедиторы&lt;/span&gt;" style="text;html=1;align=center;verticalAlign=middle;whiteSpace=wrap;rounded=0;" parent="1" vertex="1">
          <mxGeometry x="410" y="1290" width="60" height="30" as="geometry" />
        </mxCell>
        <mxCell id="Vgc5GMOzNuQ4jgEGxhGo-90" value="" style="endArrow=classic;html=1;rounded=0;entryX=0.25;entryY=1;entryDx=0;entryDy=0;" parent="1" target="Vgc5GMOzNuQ4jgEGxhGo-30" edge="1">
          <mxGeometry width="50" height="50" relative="1" as="geometry">
            <mxPoint x="400" y="1280" as="sourcePoint" />
            <mxPoint x="410" y="1060" as="targetPoint" />
          </mxGeometry>
        </mxCell>
        <mxCell id="Vgc5GMOzNuQ4jgEGxhGo-91" value="Размещение товаров на складе" style="rounded=0;whiteSpace=wrap;html=1;" parent="1" vertex="1">
          <mxGeometry x="197.5" y="1700" width="140" height="90" as="geometry" />
        </mxCell>
        <mxCell id="Vgc5GMOzNuQ4jgEGxhGo-169" style="edgeStyle=orthogonalEdgeStyle;rounded=0;orthogonalLoop=1;jettySize=auto;html=1;exitX=1;exitY=0.5;exitDx=0;exitDy=0;entryX=0;entryY=0.5;entryDx=0;entryDy=0;" parent="1" source="Vgc5GMOzNuQ4jgEGxhGo-92" target="Vgc5GMOzNuQ4jgEGxhGo-113" edge="1">
          <mxGeometry relative="1" as="geometry" />
        </mxCell>
        <mxCell id="Vgc5GMOzNuQ4jgEGxhGo-92" value="Анализ наличия необходимого количества товаров на складе" style="rounded=0;whiteSpace=wrap;html=1;" parent="1" vertex="1">
          <mxGeometry x="487.5" y="1850" width="176" height="100" as="geometry" />
        </mxCell>
        <mxCell id="Vgc5GMOzNuQ4jgEGxhGo-94" value="" style="endArrow=classic;html=1;rounded=0;" parent="1" edge="1">
          <mxGeometry width="50" height="50" relative="1" as="geometry">
            <mxPoint x="266.97" y="1550" as="sourcePoint" />
            <mxPoint x="266.97" y="1700" as="targetPoint" />
          </mxGeometry>
        </mxCell>
        <mxCell id="Vgc5GMOzNuQ4jgEGxhGo-96" value="" style="endArrow=classic;html=1;rounded=0;" parent="1" edge="1">
          <mxGeometry width="50" height="50" relative="1" as="geometry">
            <mxPoint x="577.87" y="1670" as="sourcePoint" />
            <mxPoint x="577.5" y="1850" as="targetPoint" />
          </mxGeometry>
        </mxCell>
        <mxCell id="Vgc5GMOzNuQ4jgEGxhGo-97" value="" style="endArrow=none;html=1;rounded=0;" parent="1" edge="1">
          <mxGeometry width="50" height="50" relative="1" as="geometry">
            <mxPoint x="267.5" y="1670" as="sourcePoint" />
            <mxPoint x="577.5" y="1670" as="targetPoint" />
          </mxGeometry>
        </mxCell>
        <mxCell id="Vgc5GMOzNuQ4jgEGxhGo-98" value="" style="endArrow=classic;html=1;rounded=0;entryX=0;entryY=0.25;entryDx=0;entryDy=0;" parent="1" target="Vgc5GMOzNuQ4jgEGxhGo-91" edge="1">
          <mxGeometry width="50" height="50" relative="1" as="geometry">
            <mxPoint x="27.5" y="1723" as="sourcePoint" />
            <mxPoint x="127.5" y="1710" as="targetPoint" />
          </mxGeometry>
        </mxCell>
        <mxCell id="Vgc5GMOzNuQ4jgEGxhGo-99" value="" style="endArrow=classic;html=1;rounded=0;entryX=0;entryY=0.75;entryDx=0;entryDy=0;" parent="1" target="Vgc5GMOzNuQ4jgEGxhGo-91" edge="1">
          <mxGeometry width="50" height="50" relative="1" as="geometry">
            <mxPoint x="27.5" y="1768" as="sourcePoint" />
            <mxPoint x="127.5" y="1780" as="targetPoint" />
          </mxGeometry>
        </mxCell>
        <mxCell id="Vgc5GMOzNuQ4jgEGxhGo-100" value="" style="endArrow=classic;html=1;rounded=0;entryX=0;entryY=0.75;entryDx=0;entryDy=0;" parent="1" edge="1">
          <mxGeometry width="50" height="50" relative="1" as="geometry">
            <mxPoint x="27.5" y="1890" as="sourcePoint" />
            <mxPoint x="487.5" y="1890" as="targetPoint" />
          </mxGeometry>
        </mxCell>
        <mxCell id="Vgc5GMOzNuQ4jgEGxhGo-101" value="" style="endArrow=classic;html=1;rounded=0;entryX=0;entryY=0.75;entryDx=0;entryDy=0;" parent="1" edge="1">
          <mxGeometry width="50" height="50" relative="1" as="geometry">
            <mxPoint x="27.5" y="1920" as="sourcePoint" />
            <mxPoint x="487.5" y="1920" as="targetPoint" />
          </mxGeometry>
        </mxCell>
        <mxCell id="Vgc5GMOzNuQ4jgEGxhGo-104" style="edgeStyle=orthogonalEdgeStyle;rounded=0;orthogonalLoop=1;jettySize=auto;html=1;exitX=1;exitY=0.5;exitDx=0;exitDy=0;entryX=-0.003;entryY=0.126;entryDx=0;entryDy=0;entryPerimeter=0;" parent="1" source="Vgc5GMOzNuQ4jgEGxhGo-91" target="Vgc5GMOzNuQ4jgEGxhGo-92" edge="1">
          <mxGeometry relative="1" as="geometry" />
        </mxCell>
        <mxCell id="Vgc5GMOzNuQ4jgEGxhGo-105" value="Информация о размещенных товарах" style="text;html=1;align=left;verticalAlign=middle;whiteSpace=wrap;rounded=0;" parent="1" vertex="1">
          <mxGeometry x="340" y="1710" width="150" height="30" as="geometry" />
        </mxCell>
        <mxCell id="Vgc5GMOzNuQ4jgEGxhGo-106" value="Приходные документы" style="text;html=1;align=center;verticalAlign=middle;whiteSpace=wrap;rounded=0;" parent="1" vertex="1">
          <mxGeometry x="37.5" y="1860" width="140" height="30" as="geometry" />
        </mxCell>
        <mxCell id="Vgc5GMOzNuQ4jgEGxhGo-107" value="Приходные документы" style="text;html=1;align=center;verticalAlign=middle;whiteSpace=wrap;rounded=0;" parent="1" vertex="1">
          <mxGeometry x="37.5" y="1740" width="140" height="30" as="geometry" />
        </mxCell>
        <mxCell id="Vgc5GMOzNuQ4jgEGxhGo-109" value="Получаемый товар" style="text;html=1;align=center;verticalAlign=middle;whiteSpace=wrap;rounded=0;" parent="1" vertex="1">
          <mxGeometry x="37.5" y="1690" width="140" height="30" as="geometry" />
        </mxCell>
        <mxCell id="Vgc5GMOzNuQ4jgEGxhGo-110" value="Лимитная карта" style="text;html=1;align=center;verticalAlign=middle;whiteSpace=wrap;rounded=0;" parent="1" vertex="1">
          <mxGeometry x="52.5" y="1890" width="110" height="30" as="geometry" />
        </mxCell>
        <mxCell id="Vgc5GMOzNuQ4jgEGxhGo-111" value="" style="endArrow=classic;html=1;rounded=0;entryX=0.5;entryY=1;entryDx=0;entryDy=0;" parent="1" target="Vgc5GMOzNuQ4jgEGxhGo-92" edge="1">
          <mxGeometry width="50" height="50" relative="1" as="geometry">
            <mxPoint x="576" y="2200" as="sourcePoint" />
            <mxPoint x="577.5" y="2040" as="targetPoint" />
          </mxGeometry>
        </mxCell>
        <mxCell id="Vgc5GMOzNuQ4jgEGxhGo-112" value="Информационная система склада предприятия" style="text;html=1;align=left;verticalAlign=middle;whiteSpace=wrap;rounded=0;" parent="1" vertex="1">
          <mxGeometry x="580" y="2020" width="110" height="30" as="geometry" />
        </mxCell>
        <mxCell id="Vgc5GMOzNuQ4jgEGxhGo-113" value="Комплектация товаров" style="rounded=0;whiteSpace=wrap;html=1;" parent="1" vertex="1">
          <mxGeometry x="797.5" y="1910" width="120" height="60" as="geometry" />
        </mxCell>
        <mxCell id="Vgc5GMOzNuQ4jgEGxhGo-115" value="" style="endArrow=none;html=1;rounded=0;" parent="1" edge="1">
          <mxGeometry width="50" height="50" relative="1" as="geometry">
            <mxPoint x="577.5" y="1710" as="sourcePoint" />
            <mxPoint x="857.5" y="1710" as="targetPoint" />
          </mxGeometry>
        </mxCell>
        <mxCell id="Vgc5GMOzNuQ4jgEGxhGo-116" value="" style="endArrow=classic;html=1;rounded=0;" parent="1" edge="1">
          <mxGeometry width="50" height="50" relative="1" as="geometry">
            <mxPoint x="857.5" y="1710" as="sourcePoint" />
            <mxPoint x="857.08" y="1910" as="targetPoint" />
            <Array as="points">
              <mxPoint x="857.08" y="1880" />
            </Array>
          </mxGeometry>
        </mxCell>
        <mxCell id="Vgc5GMOzNuQ4jgEGxhGo-120" value="Информация о достаточности товаров на складе" style="text;html=1;align=left;verticalAlign=middle;whiteSpace=wrap;rounded=0;" parent="1" vertex="1">
          <mxGeometry x="663.5" y="1860" width="120" height="30" as="geometry" />
        </mxCell>
        <mxCell id="Vgc5GMOzNuQ4jgEGxhGo-121" value="" style="endArrow=classic;html=1;rounded=0;" parent="1" edge="1">
          <mxGeometry width="50" height="50" relative="1" as="geometry">
            <mxPoint x="917.5" y="1940" as="sourcePoint" />
            <mxPoint x="1087.5" y="1940" as="targetPoint" />
          </mxGeometry>
        </mxCell>
        <mxCell id="Vgc5GMOzNuQ4jgEGxhGo-122" value="Укомплектованные товары" style="text;html=1;align=center;verticalAlign=middle;whiteSpace=wrap;rounded=0;" parent="1" vertex="1">
          <mxGeometry x="917.5" y="1910" width="150" height="30" as="geometry" />
        </mxCell>
        <mxCell id="Vgc5GMOzNuQ4jgEGxhGo-137" style="edgeStyle=orthogonalEdgeStyle;rounded=0;orthogonalLoop=1;jettySize=auto;html=1;exitX=1;exitY=0.5;exitDx=0;exitDy=0;entryX=0;entryY=0.5;entryDx=0;entryDy=0;" parent="1" source="Vgc5GMOzNuQ4jgEGxhGo-123" target="Vgc5GMOzNuQ4jgEGxhGo-124" edge="1">
          <mxGeometry relative="1" as="geometry" />
        </mxCell>
        <mxCell id="Vgc5GMOzNuQ4jgEGxhGo-123" value="Определение места для каждого типа товаров" style="rounded=0;whiteSpace=wrap;html=1;" parent="1" vertex="1">
          <mxGeometry x="185" y="2423" width="130" height="80" as="geometry" />
        </mxCell>
        <mxCell id="Vgc5GMOzNuQ4jgEGxhGo-138" style="edgeStyle=orthogonalEdgeStyle;rounded=0;orthogonalLoop=1;jettySize=auto;html=1;exitX=1;exitY=0.5;exitDx=0;exitDy=0;entryX=0;entryY=0.5;entryDx=0;entryDy=0;" parent="1" source="Vgc5GMOzNuQ4jgEGxhGo-124" target="Vgc5GMOzNuQ4jgEGxhGo-125" edge="1">
          <mxGeometry relative="1" as="geometry" />
        </mxCell>
        <mxCell id="Vgc5GMOzNuQ4jgEGxhGo-124" value="Проверка соответствия документации и качества" style="rounded=0;whiteSpace=wrap;html=1;" parent="1" vertex="1">
          <mxGeometry x="391" y="2533" width="130" height="90" as="geometry" />
        </mxCell>
        <mxCell id="Vgc5GMOzNuQ4jgEGxhGo-154" style="edgeStyle=orthogonalEdgeStyle;rounded=0;orthogonalLoop=1;jettySize=auto;html=1;exitX=1;exitY=0.5;exitDx=0;exitDy=0;entryX=0;entryY=0.5;entryDx=0;entryDy=0;" parent="1" source="Vgc5GMOzNuQ4jgEGxhGo-125" target="Vgc5GMOzNuQ4jgEGxhGo-150" edge="1">
          <mxGeometry relative="1" as="geometry" />
        </mxCell>
        <mxCell id="Vgc5GMOzNuQ4jgEGxhGo-125" value="Размещение товаров в зоне хранения" style="rounded=0;whiteSpace=wrap;html=1;" parent="1" vertex="1">
          <mxGeometry x="630" y="2653" width="130" height="70" as="geometry" />
        </mxCell>
        <mxCell id="Vgc5GMOzNuQ4jgEGxhGo-127" value="Получаемый товар" style="text;html=1;align=center;verticalAlign=middle;whiteSpace=wrap;rounded=0;" parent="1" vertex="1">
          <mxGeometry x="-10" y="2413" width="140" height="30" as="geometry" />
        </mxCell>
        <mxCell id="Vgc5GMOzNuQ4jgEGxhGo-128" value="" style="endArrow=classic;html=1;rounded=0;" parent="1" edge="1">
          <mxGeometry width="50" height="50" relative="1" as="geometry">
            <mxPoint x="249.47" y="2273" as="sourcePoint" />
            <mxPoint x="249.47" y="2423" as="targetPoint" />
          </mxGeometry>
        </mxCell>
        <mxCell id="Vgc5GMOzNuQ4jgEGxhGo-130" value="" style="endArrow=none;html=1;rounded=0;" parent="1" edge="1">
          <mxGeometry width="50" height="50" relative="1" as="geometry">
            <mxPoint x="250" y="2393" as="sourcePoint" />
            <mxPoint x="460" y="2393" as="targetPoint" />
          </mxGeometry>
        </mxCell>
        <mxCell id="Vgc5GMOzNuQ4jgEGxhGo-131" value="" style="endArrow=classic;html=1;rounded=0;" parent="1" edge="1">
          <mxGeometry width="50" height="50" relative="1" as="geometry">
            <mxPoint x="461" y="2393" as="sourcePoint" />
            <mxPoint x="461.38" y="2533" as="targetPoint" />
          </mxGeometry>
        </mxCell>
        <mxCell id="Vgc5GMOzNuQ4jgEGxhGo-132" value="" style="endArrow=none;html=1;rounded=0;" parent="1" edge="1">
          <mxGeometry width="50" height="50" relative="1" as="geometry">
            <mxPoint x="461" y="2473" as="sourcePoint" />
            <mxPoint x="690" y="2473" as="targetPoint" />
          </mxGeometry>
        </mxCell>
        <mxCell id="Vgc5GMOzNuQ4jgEGxhGo-133" value="" style="endArrow=classic;html=1;rounded=0;" parent="1" edge="1">
          <mxGeometry width="50" height="50" relative="1" as="geometry">
            <mxPoint x="690" y="2473" as="sourcePoint" />
            <mxPoint x="690" y="2653" as="targetPoint" />
          </mxGeometry>
        </mxCell>
        <mxCell id="Vgc5GMOzNuQ4jgEGxhGo-134" value="" style="endArrow=classic;html=1;rounded=0;entryX=0;entryY=0.5;entryDx=0;entryDy=0;" parent="1" edge="1">
          <mxGeometry width="50" height="50" relative="1" as="geometry">
            <mxPoint x="-60" y="2443" as="sourcePoint" />
            <mxPoint x="185" y="2443.0000000000005" as="targetPoint" />
            <Array as="points">
              <mxPoint x="130" y="2443" />
            </Array>
          </mxGeometry>
        </mxCell>
        <mxCell id="Vgc5GMOzNuQ4jgEGxhGo-135" value="" style="endArrow=classic;html=1;rounded=0;entryX=0;entryY=0.75;entryDx=0;entryDy=0;" parent="1" edge="1">
          <mxGeometry width="50" height="50" relative="1" as="geometry">
            <mxPoint x="-65.15779194078948" y="2603" as="sourcePoint" />
            <mxPoint x="391" y="2603" as="targetPoint" />
          </mxGeometry>
        </mxCell>
        <mxCell id="Vgc5GMOzNuQ4jgEGxhGo-136" value="Приходные документы" style="text;html=1;align=center;verticalAlign=middle;whiteSpace=wrap;rounded=0;" parent="1" vertex="1">
          <mxGeometry y="2573" width="140" height="30" as="geometry" />
        </mxCell>
        <mxCell id="Vgc5GMOzNuQ4jgEGxhGo-139" value="" style="endArrow=classic;html=1;rounded=0;entryX=0.5;entryY=1;entryDx=0;entryDy=0;" parent="1" edge="1">
          <mxGeometry width="50" height="50" relative="1" as="geometry">
            <mxPoint x="459" y="3020" as="sourcePoint" />
            <mxPoint x="459" y="2623" as="targetPoint" />
          </mxGeometry>
        </mxCell>
        <mxCell id="Vgc5GMOzNuQ4jgEGxhGo-140" value="Информационная система склада предприятия" style="text;html=1;align=center;verticalAlign=middle;whiteSpace=wrap;rounded=0;" parent="1" vertex="1">
          <mxGeometry x="460" y="2851" width="110" height="30" as="geometry" />
        </mxCell>
        <mxCell id="Vgc5GMOzNuQ4jgEGxhGo-145" value="" style="endArrow=classic;html=1;rounded=0;" parent="1" edge="1">
          <mxGeometry width="50" height="50" relative="1" as="geometry">
            <mxPoint x="299" y="2200" as="sourcePoint" />
            <mxPoint x="299.46999999999997" y="1790" as="targetPoint" />
          </mxGeometry>
        </mxCell>
        <mxCell id="Vgc5GMOzNuQ4jgEGxhGo-146" value="" style="endArrow=none;html=1;rounded=0;" parent="1" edge="1">
          <mxGeometry width="50" height="50" relative="1" as="geometry">
            <mxPoint x="300" y="2060" as="sourcePoint" />
            <mxPoint x="846" y="2060" as="targetPoint" />
          </mxGeometry>
        </mxCell>
        <mxCell id="Vgc5GMOzNuQ4jgEGxhGo-147" value="" style="endArrow=classic;html=1;rounded=0;" parent="1" edge="1">
          <mxGeometry width="50" height="50" relative="1" as="geometry">
            <mxPoint x="846" y="2060" as="sourcePoint" />
            <mxPoint x="846" y="1970" as="targetPoint" />
          </mxGeometry>
        </mxCell>
        <mxCell id="Vgc5GMOzNuQ4jgEGxhGo-150" value="Обновление информации о размещении товаров" style="rounded=0;whiteSpace=wrap;html=1;" parent="1" vertex="1">
          <mxGeometry x="880" y="2680" width="180" height="85" as="geometry" />
        </mxCell>
        <mxCell id="Vgc5GMOzNuQ4jgEGxhGo-152" value="" style="endArrow=classic;html=1;rounded=0;" parent="1" edge="1">
          <mxGeometry width="50" height="50" relative="1" as="geometry">
            <mxPoint x="970" y="2820" as="sourcePoint" />
            <mxPoint x="969.52" y="2765" as="targetPoint" />
          </mxGeometry>
        </mxCell>
        <mxCell id="Vgc5GMOzNuQ4jgEGxhGo-155" value="" style="endArrow=none;html=1;rounded=0;" parent="1" edge="1">
          <mxGeometry width="50" height="50" relative="1" as="geometry">
            <mxPoint x="460" y="2820" as="sourcePoint" />
            <mxPoint x="970" y="2820" as="targetPoint" />
          </mxGeometry>
        </mxCell>
        <mxCell id="Vgc5GMOzNuQ4jgEGxhGo-156" value="" style="endArrow=classic;html=1;rounded=0;" parent="1" edge="1">
          <mxGeometry width="50" height="50" relative="1" as="geometry">
            <mxPoint x="1060" y="2722.13" as="sourcePoint" />
            <mxPoint x="1235" y="2722.63" as="targetPoint" />
          </mxGeometry>
        </mxCell>
        <mxCell id="Vgc5GMOzNuQ4jgEGxhGo-157" value="Информация о размещенных товарах" style="text;html=1;align=center;verticalAlign=middle;whiteSpace=wrap;rounded=0;" parent="1" vertex="1">
          <mxGeometry x="1060" y="2687.55" width="150" height="30" as="geometry" />
        </mxCell>
        <mxCell id="Vgc5GMOzNuQ4jgEGxhGo-158" value="" style="endArrow=classic;html=1;rounded=0;entryX=0.25;entryY=1;entryDx=0;entryDy=0;" parent="1" target="Vgc5GMOzNuQ4jgEGxhGo-125" edge="1">
          <mxGeometry width="50" height="50" relative="1" as="geometry">
            <mxPoint x="663" y="3010" as="sourcePoint" />
            <mxPoint x="710" y="2853" as="targetPoint" />
          </mxGeometry>
        </mxCell>
        <mxCell id="Vgc5GMOzNuQ4jgEGxhGo-159" value="" style="endArrow=classic;html=1;rounded=0;entryX=0.68;entryY=0.957;entryDx=0;entryDy=0;entryPerimeter=0;" parent="1" edge="1">
          <mxGeometry width="50" height="50" relative="1" as="geometry">
            <mxPoint x="270" y="2820" as="sourcePoint" />
            <mxPoint x="270.11000000000007" y="2503" as="targetPoint" />
          </mxGeometry>
        </mxCell>
        <mxCell id="Vgc5GMOzNuQ4jgEGxhGo-160" value="" style="endArrow=none;html=1;rounded=0;" parent="1" edge="1">
          <mxGeometry width="50" height="50" relative="1" as="geometry">
            <mxPoint x="270" y="2820" as="sourcePoint" />
            <mxPoint x="460" y="2820" as="targetPoint" />
          </mxGeometry>
        </mxCell>
        <mxCell id="Vgc5GMOzNuQ4jgEGxhGo-164" value="информация о местах товаров" style="text;html=1;align=center;verticalAlign=middle;whiteSpace=wrap;rounded=0;" parent="1" vertex="1">
          <mxGeometry x="320" y="2433" width="109" height="30" as="geometry" />
        </mxCell>
        <mxCell id="Vgc5GMOzNuQ4jgEGxhGo-165" value="Размещенные товары" style="text;html=1;align=center;verticalAlign=middle;whiteSpace=wrap;rounded=0;" parent="1" vertex="1">
          <mxGeometry x="780" y="2653" width="60" height="30" as="geometry" />
        </mxCell>
        <mxCell id="Vgc5GMOzNuQ4jgEGxhGo-167" value="А21" style="text;html=1;align=center;verticalAlign=middle;whiteSpace=wrap;rounded=0;" parent="1" vertex="1">
          <mxGeometry x="294.5" y="1767" width="60" height="30" as="geometry" />
        </mxCell>
        <mxCell id="Vgc5GMOzNuQ4jgEGxhGo-168" value="А22" style="text;html=1;align=center;verticalAlign=middle;whiteSpace=wrap;rounded=0;" parent="1" vertex="1">
          <mxGeometry x="620.5" y="1927" width="60" height="30" as="geometry" />
        </mxCell>
        <mxCell id="Vgc5GMOzNuQ4jgEGxhGo-170" value="Проверенные товары" style="text;html=1;align=center;verticalAlign=middle;whiteSpace=wrap;rounded=0;" parent="1" vertex="1">
          <mxGeometry x="530" y="2543" width="60" height="30" as="geometry" />
        </mxCell>
        <mxCell id="Vgc5GMOzNuQ4jgEGxhGo-171" value="А23" style="text;html=1;align=center;verticalAlign=middle;whiteSpace=wrap;rounded=0;" parent="1" vertex="1">
          <mxGeometry x="875.5" y="1948" width="60" height="30" as="geometry" />
        </mxCell>
        <mxCell id="Vgc5GMOzNuQ4jgEGxhGo-172" value="А211" style="text;html=1;align=center;verticalAlign=middle;whiteSpace=wrap;rounded=0;" parent="1" vertex="1">
          <mxGeometry x="270" y="2480" width="60" height="30" as="geometry" />
        </mxCell>
        <mxCell id="Vgc5GMOzNuQ4jgEGxhGo-173" value="А212" style="text;html=1;align=center;verticalAlign=middle;whiteSpace=wrap;rounded=0;" parent="1" vertex="1">
          <mxGeometry x="475" y="2600" width="60" height="30" as="geometry" />
        </mxCell>
        <mxCell id="Vgc5GMOzNuQ4jgEGxhGo-174" value="А213" style="text;html=1;align=center;verticalAlign=middle;whiteSpace=wrap;rounded=0;" parent="1" vertex="1">
          <mxGeometry x="714" y="2701" width="60" height="30" as="geometry" />
        </mxCell>
        <mxCell id="Vgc5GMOzNuQ4jgEGxhGo-175" value="А214" style="text;html=1;align=center;verticalAlign=middle;whiteSpace=wrap;rounded=0;" parent="1" vertex="1">
          <mxGeometry x="1014" y="2742" width="60" height="30" as="geometry" />
        </mxCell>
        <mxCell id="5cNSOUvOn5PUiQkZytoI-1" value="Учар Рони Алан Метинович" style="text;html=1;align=center;verticalAlign=middle;whiteSpace=wrap;rounded=0;" parent="1" vertex="1">
          <mxGeometry x="583.5" y="100" width="175" height="30" as="geometry" />
        </mxCell>
        <mxCell id="5cNSOUvOn5PUiQkZytoI-2" value="Учар Рони Алан Метинович" style="text;html=1;align=center;verticalAlign=middle;whiteSpace=wrap;rounded=0;" parent="1" vertex="1">
          <mxGeometry x="480" y="730" width="175" height="30" as="geometry" />
        </mxCell>
        <mxCell id="5cNSOUvOn5PUiQkZytoI-3" value="Учар Рони Алан Метинович" style="text;html=1;align=center;verticalAlign=middle;whiteSpace=wrap;rounded=0;" parent="1" vertex="1">
          <mxGeometry x="917.5" y="1650" width="175" height="30" as="geometry" />
        </mxCell>
        <mxCell id="5cNSOUvOn5PUiQkZytoI-4" value="Учар Рони Алан Метинович" style="text;html=1;align=center;verticalAlign=middle;whiteSpace=wrap;rounded=0;" parent="1" vertex="1">
          <mxGeometry x="1035" y="2308" width="175" height="30" as="geometry" />
        </mxCell>
        <mxCell id="5cNSOUvOn5PUiQkZytoI-5" value="" style="endArrow=classic;html=1;rounded=0;" parent="1" edge="1">
          <mxGeometry width="50" height="50" relative="1" as="geometry">
            <mxPoint x="-20" y="1120" as="sourcePoint" />
            <mxPoint x="650" y="1120" as="targetPoint" />
          </mxGeometry>
        </mxCell>
        <mxCell id="vhRR9uOZMTyl2STY0tmH-10" value="" style="endArrow=classic;html=1;rounded=0;" edge="1" parent="1">
          <mxGeometry width="50" height="50" relative="1" as="geometry">
            <mxPoint x="600" y="369.13" as="sourcePoint" />
            <mxPoint x="776" y="369.47" as="targetPoint" />
          </mxGeometry>
        </mxCell>
        <mxCell id="vhRR9uOZMTyl2STY0tmH-11" value="Отгружаемая продукция" style="text;html=1;align=center;verticalAlign=middle;whiteSpace=wrap;rounded=0;" vertex="1" parent="1">
          <mxGeometry x="611" y="339.13" width="120" height="30" as="geometry" />
        </mxCell>
        <mxCell id="vhRR9uOZMTyl2STY0tmH-19" value="" style="endArrow=classic;html=1;rounded=0;" edge="1" parent="1">
          <mxGeometry width="50" height="50" relative="1" as="geometry">
            <mxPoint x="400" y="580" as="sourcePoint" />
            <mxPoint x="400" y="410" as="targetPoint" />
          </mxGeometry>
        </mxCell>
        <mxCell id="vhRR9uOZMTyl2STY0tmH-20" value="Операторы,&lt;div&gt;техники&amp;nbsp; WMS&lt;/div&gt;" style="text;html=1;align=left;verticalAlign=middle;whiteSpace=wrap;rounded=0;" vertex="1" parent="1">
          <mxGeometry x="400" y="460" width="60" height="30" as="geometry" />
        </mxCell>
        <mxCell id="vhRR9uOZMTyl2STY0tmH-23" value="&amp;nbsp;Приходный ордер" style="text;html=1;align=center;verticalAlign=middle;whiteSpace=wrap;rounded=0;" vertex="1" parent="1">
          <mxGeometry x="10" y="918" width="100" height="30" as="geometry" />
        </mxCell>
        <mxCell id="vhRR9uOZMTyl2STY0tmH-25" value="" style="endArrow=none;html=1;rounded=0;" edge="1" parent="1">
          <mxGeometry width="50" height="50" relative="1" as="geometry">
            <mxPoint x="260" y="889.71" as="sourcePoint" />
            <mxPoint x="290" y="890" as="targetPoint" />
          </mxGeometry>
        </mxCell>
        <mxCell id="vhRR9uOZMTyl2STY0tmH-26" value="" style="endArrow=classic;html=1;rounded=0;" edge="1" parent="1">
          <mxGeometry width="50" height="50" relative="1" as="geometry">
            <mxPoint x="-20" y="917.72" as="sourcePoint" />
            <mxPoint x="140" y="917.72" as="targetPoint" />
          </mxGeometry>
        </mxCell>
        <mxCell id="vhRR9uOZMTyl2STY0tmH-27" value="Лимитная карта" style="text;html=1;align=center;verticalAlign=middle;whiteSpace=wrap;rounded=0;" vertex="1" parent="1">
          <mxGeometry x="130" y="330" width="100" height="30" as="geometry" />
        </mxCell>
        <mxCell id="vhRR9uOZMTyl2STY0tmH-28" value="Лимитная карта" style="text;html=1;align=center;verticalAlign=middle;whiteSpace=wrap;rounded=0;" vertex="1" parent="1">
          <mxGeometry x="10" y="980" width="100" height="30" as="geometry" />
        </mxCell>
        <mxCell id="vhRR9uOZMTyl2STY0tmH-29" value="Обновленные инструкции" style="text;html=1;align=left;verticalAlign=middle;whiteSpace=wrap;rounded=0;" vertex="1" parent="1">
          <mxGeometry x="200" y="780" width="60" height="30" as="geometry" />
        </mxCell>
        <mxCell id="vhRR9uOZMTyl2STY0tmH-31" value="" style="endArrow=classic;html=1;rounded=0;" edge="1" parent="1">
          <mxGeometry width="50" height="50" relative="1" as="geometry">
            <mxPoint x="163" y="1410" as="sourcePoint" />
            <mxPoint x="162.5" y="930" as="targetPoint" />
          </mxGeometry>
        </mxCell>
        <mxCell id="vhRR9uOZMTyl2STY0tmH-36" value="" style="endArrow=none;html=1;rounded=0;" edge="1" parent="1">
          <mxGeometry width="50" height="50" relative="1" as="geometry">
            <mxPoint x="164" y="1360" as="sourcePoint" />
            <mxPoint x="380" y="1360" as="targetPoint" />
          </mxGeometry>
        </mxCell>
        <mxCell id="vhRR9uOZMTyl2STY0tmH-37" value="" style="endArrow=classic;html=1;rounded=0;" edge="1" parent="1">
          <mxGeometry width="50" height="50" relative="1" as="geometry">
            <mxPoint x="380" y="1360" as="sourcePoint" />
            <mxPoint x="380" y="1020" as="targetPoint" />
          </mxGeometry>
        </mxCell>
        <mxCell id="vhRR9uOZMTyl2STY0tmH-38" value="" style="endArrow=none;html=1;rounded=0;" edge="1" parent="1">
          <mxGeometry width="50" height="50" relative="1" as="geometry">
            <mxPoint x="376" y="1360" as="sourcePoint" />
            <mxPoint x="760" y="1360" as="targetPoint" />
          </mxGeometry>
        </mxCell>
        <mxCell id="vhRR9uOZMTyl2STY0tmH-39" value="" style="endArrow=classic;html=1;rounded=0;" edge="1" parent="1">
          <mxGeometry width="50" height="50" relative="1" as="geometry">
            <mxPoint x="760.05" y="1360" as="sourcePoint" />
            <mxPoint x="760" y="1130" as="targetPoint" />
          </mxGeometry>
        </mxCell>
        <mxCell id="vhRR9uOZMTyl2STY0tmH-40" value="Операторы,&lt;div&gt;техники&amp;nbsp; WMS&lt;/div&gt;" style="text;html=1;align=left;verticalAlign=middle;whiteSpace=wrap;rounded=0;" vertex="1" parent="1">
          <mxGeometry x="164" y="1320" width="60" height="30" as="geometry" />
        </mxCell>
        <mxCell id="vhRR9uOZMTyl2STY0tmH-41" value="Обновленные инструкции" style="text;html=1;align=left;verticalAlign=middle;whiteSpace=wrap;rounded=0;" vertex="1" parent="1">
          <mxGeometry x="270" y="1640" width="60" height="30" as="geometry" />
        </mxCell>
        <mxCell id="vhRR9uOZMTyl2STY0tmH-42" value="&lt;span style=&quot;&quot;&gt;Роботы-экспедиторы&lt;/span&gt;" style="text;html=1;align=left;verticalAlign=middle;whiteSpace=wrap;rounded=0;" vertex="1" parent="1">
          <mxGeometry x="300" y="2060" width="60" height="30" as="geometry" />
        </mxCell>
        <mxCell id="vhRR9uOZMTyl2STY0tmH-43" value="Операторы,&lt;div&gt;техники&amp;nbsp; WMS&lt;/div&gt;" style="text;html=1;align=left;verticalAlign=middle;whiteSpace=wrap;rounded=0;" vertex="1" parent="1">
          <mxGeometry x="224" y="2130" width="60" height="30" as="geometry" />
        </mxCell>
        <mxCell id="vhRR9uOZMTyl2STY0tmH-45" value="" style="endArrow=classic;html=1;rounded=0;" edge="1" parent="1">
          <mxGeometry width="50" height="50" relative="1" as="geometry">
            <mxPoint x="224" y="2200" as="sourcePoint" />
            <mxPoint x="224" y="1790" as="targetPoint" />
          </mxGeometry>
        </mxCell>
        <mxCell id="vhRR9uOZMTyl2STY0tmH-46" value="" style="endArrow=none;html=1;rounded=0;" edge="1" parent="1">
          <mxGeometry width="50" height="50" relative="1" as="geometry">
            <mxPoint x="226" y="2120" as="sourcePoint" />
            <mxPoint x="900" y="2120" as="targetPoint" />
          </mxGeometry>
        </mxCell>
        <mxCell id="vhRR9uOZMTyl2STY0tmH-48" value="" style="endArrow=classic;html=1;rounded=0;" edge="1" parent="1">
          <mxGeometry width="50" height="50" relative="1" as="geometry">
            <mxPoint x="900" y="2120" as="sourcePoint" />
            <mxPoint x="899.49" y="1970" as="targetPoint" />
          </mxGeometry>
        </mxCell>
        <mxCell id="vhRR9uOZMTyl2STY0tmH-49" value="Обновленные инструкции" style="text;html=1;align=left;verticalAlign=middle;whiteSpace=wrap;rounded=0;" vertex="1" parent="1">
          <mxGeometry x="255" y="2360" width="60" height="30" as="geometry" />
        </mxCell>
        <mxCell id="vhRR9uOZMTyl2STY0tmH-50" value="&lt;span style=&quot;&quot;&gt;Роботы-экспедиторы&lt;/span&gt;" style="text;html=1;align=left;verticalAlign=middle;whiteSpace=wrap;rounded=0;" vertex="1" parent="1">
          <mxGeometry x="665" y="2772" width="60" height="30" as="geometry" />
        </mxCell>
        <mxCell id="vhRR9uOZMTyl2STY0tmH-51" value="Операторы,&lt;div&gt;техники&amp;nbsp; WMS&lt;/div&gt;" style="text;html=1;align=left;verticalAlign=middle;whiteSpace=wrap;rounded=0;" vertex="1" parent="1">
          <mxGeometry x="745" y="2772" width="60" height="30" as="geometry" />
        </mxCell>
        <mxCell id="vhRR9uOZMTyl2STY0tmH-52" value="" style="endArrow=classic;html=1;rounded=0;entryX=0.25;entryY=1;entryDx=0;entryDy=0;" edge="1" parent="1">
          <mxGeometry width="50" height="50" relative="1" as="geometry">
            <mxPoint x="743.5" y="3010" as="sourcePoint" />
            <mxPoint x="743.5" y="2723" as="targetPoint" />
          </mxGeometry>
        </mxCell>
      </root>
    </mxGraphModel>
  </diagram>
</mxfile>
